<svg width="29" height="28" viewBox="0 0 29 28" fill="none" xmlns="http://www.w3.org/2000/svg">
<g clip-path="url(#clip0_1_61)">
<path d="M28.1876 25.0196L22.6303 19.598C26.7885 14.1791 25.6547 6.49891 20.0978 2.4439C14.5409 -1.6111 6.66519 -0.505436 2.50693 4.91347C-1.65134 10.3324 -0.517518 18.0125 5.03938 22.0675C9.50314 25.3249 15.634 25.3249 20.0978 22.0675L25.6575 27.4892C26.3562 28.1705 27.489 28.1705 28.1876 27.4892C28.8862 26.8078 28.8862 25.7032 28.1876 25.0219L28.1876 25.0196ZM12.6149 21.0211C7.67623 21.0211 3.67266 17.117 3.67266 12.3009C3.67266 7.48484 7.67623 3.58069 12.6149 3.58069C17.5536 3.58069 21.5572 7.48484 21.5572 12.3009C21.552 17.1148 17.5515 21.016 12.6149 21.0211Z" fill="#3C2F2F"/>
</g>
<defs>
<clipPath id="clip0_1_61">
<rect width="28.713" height="28" fill="white"/>
</clipPath>
</defs>
</svg>
